<svg width="21" height="26" viewBox="0 0 21 26" fill="none" xmlns="http://www.w3.org/2000/svg">
<g opacity="0.5" filter="url(#filter0_f)">
<path d="M12.6899 22.9998C11.2299 22.9998 10.1659 22.6558 9.49794 21.9698C8.83094 21.2818 8.49695 20.5408 8.49695 19.7468C8.49695 19.4568 8.55495 19.2118 8.67195 19.0138C8.78603 18.8173 8.95076 18.655 9.14894 18.5438C9.35094 18.4299 9.59894 18.3719 9.89393 18.3719C10.1889 18.3719 10.4379 18.4299 10.6399 18.5438C10.8419 18.6588 10.9999 18.8148 11.1169 19.0138C11.2339 19.2118 11.2919 19.4568 11.2919 19.7468C11.2919 20.0978 11.2069 20.3838 11.0359 20.6058C10.8649 20.8278 10.6629 20.9718 10.4299 21.0408C10.6319 21.3158 10.9499 21.5108 11.3849 21.6248C11.8199 21.7478 12.2549 21.8088 12.6889 21.8088C13.2722 21.8156 13.8443 21.6481 14.3319 21.3278C14.8209 21.0068 15.1819 20.5328 15.4139 19.9078C15.6469 19.2808 15.7639 18.5708 15.7639 17.7769C15.7639 16.9139 15.6359 16.1769 15.3799 15.5659C15.1309 14.9469 14.7619 14.4889 14.2729 14.1909C13.797 13.897 13.2482 13.7425 12.6889 13.7449C12.3169 13.7449 11.8509 13.8969 11.2919 14.2029L10.2669 14.7069V14.2029L14.8789 8.15495H8.49695V14.4319C8.49695 14.9519 8.61295 15.3789 8.84694 15.7149C9.07894 16.0509 9.43694 16.2189 9.91693 16.2189C10.2899 16.2189 10.6469 16.0969 10.9889 15.8519C11.3319 15.606 11.6311 15.3041 11.8739 14.9589C11.8979 14.8988 11.9385 14.8468 11.9909 14.8089C12.0331 14.7731 12.0866 14.7533 12.1419 14.7529C12.2279 14.7529 12.3279 14.7949 12.4449 14.8779C12.551 14.9935 12.6093 15.145 12.6079 15.3019C12.5946 15.4099 12.5752 15.517 12.5499 15.6229C12.2859 16.2029 11.9199 16.6459 11.4549 16.9519C10.9995 17.254 10.4644 17.4134 9.91793 17.4099C8.53595 17.4099 7.58096 17.1429 7.05296 16.6079C6.52497 16.0739 6.26097 15.3479 6.26097 14.4319V8.15495H3V6.98596H6.25997V4.32999L5.51598 3.59599V3H7.68195L8.49695 3.412V6.98596L16.9279 6.96296L17.7679 7.78795L12.5959 12.8739C12.9092 12.7507 13.2386 12.6733 13.5739 12.6439C14.1339 12.6439 14.7619 12.8199 15.4609 13.1719C16.1679 13.5149 16.7109 13.9889 17.0909 14.5919C17.4719 15.1879 17.7169 15.7609 17.8249 16.3109C17.9336 16.7922 17.9922 17.2835 17.9999 17.7769C18.0072 18.7223 17.7917 19.6562 17.3709 20.5028C16.9665 21.328 16.2927 21.9904 15.4609 22.3808C14.5965 22.7956 13.6487 23.0073 12.6899 22.9998Z" fill="#3EFFA2"/>
</g>
<path d="M12.6899 22.9998C11.2299 22.9998 10.1659 22.6558 9.49794 21.9698C8.83094 21.2818 8.49695 20.5408 8.49695 19.7468C8.49695 19.4568 8.55495 19.2118 8.67195 19.0138C8.78603 18.8173 8.95076 18.655 9.14894 18.5438C9.35094 18.4299 9.59894 18.3719 9.89393 18.3719C10.1889 18.3719 10.4379 18.4299 10.6399 18.5438C10.8419 18.6588 10.9999 18.8148 11.1169 19.0138C11.2339 19.2118 11.2919 19.4568 11.2919 19.7468C11.2919 20.0978 11.2069 20.3838 11.0359 20.6058C10.8649 20.8278 10.6629 20.9718 10.4299 21.0408C10.6319 21.3158 10.9499 21.5108 11.3849 21.6248C11.8199 21.7478 12.2549 21.8088 12.6889 21.8088C13.2722 21.8156 13.8443 21.6481 14.3319 21.3278C14.8209 21.0068 15.1819 20.5328 15.4139 19.9078C15.6469 19.2808 15.7639 18.5708 15.7639 17.7769C15.7639 16.9139 15.6359 16.1769 15.3799 15.5659C15.1309 14.9469 14.7619 14.4889 14.2729 14.1909C13.797 13.897 13.2482 13.7425 12.6889 13.7449C12.3169 13.7449 11.8509 13.8969 11.2919 14.2029L10.2669 14.7069V14.2029L14.8789 8.15495H8.49695V14.4319C8.49695 14.9519 8.61295 15.3789 8.84694 15.7149C9.07894 16.0509 9.43694 16.2189 9.91693 16.2189C10.2899 16.2189 10.6469 16.0969 10.9889 15.8519C11.3319 15.606 11.6311 15.3041 11.8739 14.9589C11.8979 14.8988 11.9385 14.8468 11.9909 14.8089C12.0331 14.7731 12.0866 14.7533 12.1419 14.7529C12.2279 14.7529 12.3279 14.7949 12.4449 14.8779C12.551 14.9935 12.6093 15.145 12.6079 15.3019C12.5946 15.4099 12.5752 15.517 12.5499 15.6229C12.2859 16.2029 11.9199 16.6459 11.4549 16.9519C10.9995 17.254 10.4644 17.4134 9.91793 17.4099C8.53595 17.4099 7.58096 17.1429 7.05296 16.6079C6.52497 16.0739 6.26097 15.3479 6.26097 14.4319V8.15495H3V6.98596H6.25997V4.32999L5.51598 3.59599V3H7.68195L8.49695 3.412V6.98596L16.9279 6.96296L17.7679 7.78795L12.5959 12.8739C12.9092 12.7507 13.2386 12.6733 13.5739 12.6439C14.1339 12.6439 14.7619 12.8199 15.4609 13.1719C16.1679 13.5149 16.7109 13.9889 17.0909 14.5919C17.4719 15.1879 17.7169 15.7609 17.8249 16.3109C17.9336 16.7922 17.9922 17.2835 17.9999 17.7769C18.0072 18.7223 17.7917 19.6562 17.3709 20.5028C16.9665 21.328 16.2927 21.9904 15.4609 22.3808C14.5965 22.7956 13.6487 23.0073 12.6899 22.9998Z" fill="#3EFFA2"/>
<defs>
<filter id="filter0_f" x="0.0930235" y="0.0930235" width="20.814" height="25.814" filterUnits="userSpaceOnUse" color-interpolation-filters="sRGB">
<feFlood flood-opacity="0" result="BackgroundImageFix"/>
<feBlend mode="normal" in="SourceGraphic" in2="BackgroundImageFix" result="shape"/>
<feGaussianBlur stdDeviation="1.45349" result="effect1_foregroundBlur"/>
</filter>
</defs>
</svg>
