<svg width="21" height="21" viewBox="0 0 21 21" fill="none" xmlns="http://www.w3.org/2000/svg">
<path d="M11.625 15.2572H12.25V10.7428H11.625C11.2798 10.7428 11 10.463 11 10.1178V8.625C11 8.27981 11.2798 8 11.625 8H15.125C15.4702 8 15.75 8.27981 15.75 8.625V15.2572H16.375C16.7202 15.2572 17 15.537 17 15.8822V17.375C17 17.7202 16.7202 18 16.375 18H11.625C11.2798 18 11 17.7202 11 17.375V15.8822C11 15.537 11.2798 15.2572 11.625 15.2572ZM14 2C12.7573 2 11.75 3.00734 11.75 4.25C11.75 5.49266 12.7573 6.5 14 6.5C15.2427 6.5 16.25 5.49266 16.25 4.25C16.25 3.00734 15.2426 2 14 2Z" fill="#FBFBFB"/>
</svg>
