<svg width="35" height="34" viewBox="0 0 35 34" fill="none" xmlns="http://www.w3.org/2000/svg">
<g clip-path="url(#clip0)">
<path d="M23.4635 24.4137L24.9615 28.91C25.1121 29.3617 25.1 29.8518 24.9275 30.2956C24.7549 30.7394 24.4327 31.1089 24.0165 31.3402C22.417 32.2303 20.408 32.6667 18 32.6667C15.592 32.6667 13.583 32.2303 11.9835 31.3402C11.5673 31.1089 11.2451 30.7394 11.0725 30.2956C10.9 29.8518 10.8879 29.3617 11.0385 28.91L12.5377 24.4137C14.108 25.6078 16.0272 26.253 18 26.25C20.0533 26.25 21.9457 25.5663 23.4635 24.4137ZM18 9.33334C19.5598 9.33334 21.0123 9.78601 22.235 10.5688C22.1393 10.934 21.9923 11.2035 21.8068 11.3902C21.5117 11.6842 21.01 11.8802 20.261 11.9385L20.002 11.9537L19.5598 11.9653C17.0293 12.1508 17.0923 16.0417 19.75 16.0417C20.7883 16.0417 21.4498 16.2528 21.8068 16.6098C22.1008 16.905 22.2968 17.4067 22.3552 18.1557L22.3703 18.4147L22.382 18.8568C22.494 20.3898 23.9663 20.9708 25.1097 20.5998C24.3403 22.2124 23.0454 23.5155 21.4378 24.2951C19.8301 25.0747 18.0052 25.2845 16.2625 24.8901C14.5199 24.4957 12.9631 23.5205 11.8478 22.1246C10.7326 20.7287 10.125 18.9951 10.125 17.2083C10.125 15.1198 10.9547 13.1167 12.4315 11.6399C13.9084 10.163 15.9114 9.33334 18 9.33334ZM25.2917 9.33334C25.2917 10.675 25.6067 11.62 26.2017 12.215C26.7512 12.7633 27.5993 13.0748 28.78 13.1192L29.0833 13.125C30.201 13.125 30.2477 14.7327 29.2233 14.8657L29.0833 14.875C27.7417 14.875 26.7967 15.19 26.2017 15.785C25.6533 16.3357 25.3418 17.1827 25.2975 18.3633L25.2917 18.6667C25.2917 19.8333 23.5417 19.8333 23.5417 18.6667C23.5417 17.325 23.2267 16.38 22.6317 15.785C22.081 15.2367 21.234 14.9252 20.0533 14.8808L19.75 14.875C18.6323 14.875 18.5857 13.2673 19.61 13.1343L19.75 13.125C21.0917 13.125 22.0367 12.81 22.6317 12.215C23.2267 11.62 23.5417 10.675 23.5417 9.33334C23.5417 8.16668 25.2917 8.16668 25.2917 9.33334Z" fill="#FBFBFB"/>
</g>
<defs>
<clipPath id="clip0">
<rect width="34" height="34" fill="white" transform="translate(0.5)"/>
</clipPath>
</defs>
</svg>
