<svg width="22" height="22" viewBox="0 0 22 22" fill="none" xmlns="http://www.w3.org/2000/svg">
<path d="M19.568 10.5566L21.2521 13.475C21.59 14.0601 21.7679 14.724 21.7679 15.3997C21.768 16.0754 21.5902 16.7392 21.2524 17.3245C20.9146 17.9097 20.4288 18.3957 19.8437 18.7337C19.2586 19.0717 18.5948 19.2498 17.9191 19.25H15.6498V22L10.1497 18.15L15.6498 14.3V17.05H17.918C18.2077 17.0502 18.4924 16.9741 18.7434 16.8293C18.9943 16.6846 19.2028 16.4763 19.3477 16.2254C19.4927 15.9746 19.569 15.69 19.569 15.4002C19.5691 15.1105 19.4929 14.8259 19.348 14.575L17.6628 11.6567L19.568 10.5566ZM6.08413 7.29733L6.66713 13.9854L4.28672 12.6104L3.15262 14.575C3.0078 14.8258 2.93156 15.1103 2.93156 15.4C2.93155 15.6896 3.00779 15.9741 3.1526 16.225C3.29742 16.4758 3.50571 16.6841 3.75653 16.8289C4.00736 16.9737 4.29189 17.05 4.58152 17.05H7.94974V19.25H4.58152C3.90571 19.25 3.24181 19.0721 2.65655 18.7341C2.07128 18.3962 1.58528 17.9102 1.24738 17.3249C0.909483 16.7397 0.731597 16.0758 0.731601 15.3999C0.731606 14.7241 0.9095 14.0602 1.24741 13.475L2.38041 11.5093L0 10.1353L6.08303 7.29733H6.08413ZM13.1748 0.515797C13.76 0.853498 14.2462 1.3397 14.5839 1.9249L15.7169 3.88841L18.0995 2.51341L17.5165 9.20254L11.4313 6.36453L13.8128 4.98952L12.6787 3.02491C12.5338 2.7741 12.3255 2.56582 12.0747 2.42102C11.8239 2.27621 11.5394 2.19998 11.2498 2.19998C10.9601 2.19998 10.6756 2.27621 10.4248 2.42102C10.174 2.56582 9.96567 2.7741 9.82085 3.02491L8.13564 5.94322L6.23043 4.84322L7.91674 1.9249C8.4273 1.04066 9.2682 0.39544 10.2545 0.131183C11.2407 -0.133074 12.2916 0.00527533 13.1759 0.515797H13.1748Z" fill="#F2C94C"/>
</svg>
